<?xml version="1.0" encoding="UTF-8"?>
<svg xmlns="http://www.w3.org/2000/svg"
     width="160"
     height="35"
     viewBox="0 0 160 35"
     role="img"
     aria-labelledby="title"
     shape-rendering="geometricPrecision">
  <title id="title">U-OS forward navigation logo</title>
  <g id="grid">
    <rect x="0" y="1" width="9" height="9" rx="0.6" fill="#9BB791"/>
    <rect x="12" y="1" width="9" height="9" rx="0.6" fill="#9BB791"/>
    <rect x="24" y="1" width="9" height="9" rx="0.6" fill="#9BB791"/>
    <rect x="0" y="13" width="9" height="9" rx="0.6" fill="#9BB791"/>
    <rect x="12" y="13" width="9" height="9" rx="0.6" fill="#9BB791"/>
    <rect x="24" y="13" width="9" height="9" rx="0.6" fill="#9BB791"/>
    <rect x="0" y="25" width="9" height="9" rx="0.6" fill="#9BB791"/>
    <rect x="12" y="25" width="9" height="9" rx="0.6" fill="#9BB791"/>
    <rect x="24" y="25" width="9" height="9" rx="0.6" fill="#9BB791"/>
  </g>
  <polygon id="arrow"
           points="41.000,2.000 50.000,2.000 65.000,17.500 50.000,33.000 41.000,33.000 56.000,17.500"
           fill="#9BB791"/>
  <path id="acronym"
        d="M98.27755102040815 22.236734693877548Q98.27755102040815 25.559183673469384 96.86326530612244 28.230612244897955Q95.44897959183673 30.902040816326526 92.6204081632653 32.45102040816326Q89.79183673469387 33.99999999999999 85.5265306122449 33.99999999999999Q79.42040816326531 33.99999999999999 76.21020408163265 30.744897959183668Q73.0 27.489795918367342 73.0 22.1469387755102V1.4938775510204039H80.2734693877551V21.11428571428571Q80.2734693877551 25.065306122448973 81.64285714285714 26.68163265306122Q83.01224489795918 28.297959183673466 85.66122448979591 28.297959183673466Q88.48979591836735 28.297959183673466 89.7469387755102 26.5469387755102Q91.00408163265305 24.795918367346935 91.00408163265305 21.069387755102035V1.4938775510204039H98.27755102040815ZM133.79183673469387 17.47755102040816Q133.79183673469387 22.461224489795917 132.26530612244898 26.165306122448975Q130.73877551020408 29.869387755102036 127.55102040816325 31.934693877551013Q124.36326530612243 33.99999999999999 119.28979591836733 33.99999999999999Q114.30612244897958 33.99999999999999 111.09591836734693 31.934693877551013Q107.88571428571427 29.869387755102036 106.33673469387753 26.14285714285714Q104.7877551020408 22.416326530612242 104.7877551020408 17.432653061224485Q104.7877551020408 12.448979591836732 106.33673469387753 8.767346938775507Q107.88571428571427 5.085714285714282 111.11836734693875 3.042857142857141Q114.35102040816325 1.0 119.334693877551 1.0Q124.36326530612243 1.0 127.55102040816325 3.042857142857141Q130.73877551020408 5.085714285714282 132.26530612244898 8.789795918367343Q133.79183673469387 12.493877551020404 133.79183673469387 17.47755102040816ZM112.4204081632653 17.47755102040816Q112.4204081632653 22.50612244897959 114.03673469387755 25.402040816326526Q115.65306122448979 28.297959183673466 119.28979591836733 28.297959183673466Q123.01632653061223 28.297959183673466 124.5877551020408 25.402040816326526Q126.15918367346937 22.50612244897959 126.15918367346937 17.47755102040816Q126.15918367346937 12.404081632653057 124.5877551020408 9.530612244897956Q123.01632653061223 6.657142857142855 119.334693877551 6.657142857142855Q115.65306122448979 6.657142857142855 114.03673469387755 9.530612244897956Q112.4204081632653 12.404081632653057 112.4204081632653 17.47755102040816ZM159.24897959183673 24.661224489795913Q159.24897959183673 28.926530612244893 156.39795918367346 31.463265306122445Q153.5469387755102 33.99999999999999 147.79999999999998 33.99999999999999Q145.1061224489796 33.99999999999999 142.99591836734692 33.50612244897958Q140.88571428571427 33.01224489795918 138.91020408163263 32.069387755102035V25.73877551020408Q141.2 26.726530612244893 143.6020408163265 27.557142857142853Q146.00408163265305 28.387755102040813 148.15918367346939 28.387755102040813Q150.22448979591834 28.387755102040813 151.14489795918365 27.422448979591834Q152.06530612244896 26.457142857142852 152.06530612244896 24.97551020408163Q152.06530612244896 23.17959183673469 150.62857142857143 22.057142857142853Q149.19183673469388 20.934693877551016 146.40816326530611 19.812244897959182Q144.61224489795916 19.048979591836734 142.95102040816323 17.926530612244896Q141.28979591836733 16.80408163265306 140.23469387755102 14.940816326530609Q139.1795918367347 13.077551020408158 139.1795918367347 10.159183673469386Q139.1795918367347 5.848979591836731 142.1204081632653 3.4469387755102012Q145.0612244897959 1.0448979591836718 149.9551020408163 1.0448979591836718Q152.60408163265305 1.0448979591836718 154.87142857142857 1.6285714285714263Q157.13877551020408 2.212244897959181 159.20408163265304 3.289795918367343L156.9142857142857 8.587755102040813Q154.93877551020407 7.689795918367345 153.16530612244895 7.195918367346936Q151.39183673469387 6.702040816326527 149.73061224489794 6.702040816326527Q148.06938775510204 6.702040816326527 147.19387755102042 7.599999999999996Q146.31836734693877 8.497959183673466 146.31836734693877 9.934693877551016Q146.31836734693877 11.057142857142853 146.92448979591836 11.84285714285714Q147.53061224489795 12.628571428571426 148.83265306122448 13.369387755102037Q150.134693877551 14.110204081632649 152.1551020408163 15.142857142857139Q154.39999999999998 16.265306122448976 155.99387755102038 17.499999999999996Q157.5877551020408 18.734693877551017 158.41836734693877 20.44081632653061Q159.24897959183673 22.1469387755102 159.24897959183673 24.661224489795913Z"
        fill="#F2F2EC"
        fill-rule="nonzero"/>
</svg>
